<svg xmlns="http://www.w3.org/2000/svg" width="32" height="33" viewBox="0 0 32 33" fill="none"><path fill-rule="evenodd" clip-rule="evenodd" d="M10.2268 2.83545H21.7868C26.3068 2.83545 29.3335 6.00878 29.3335 10.7288V21.6234C29.3335 26.3288 26.3068 29.5021 21.7868 29.5021H10.2268C5.70679 29.5021 2.66679 26.3288 2.66679 21.6234V10.7288C2.66679 6.00878 5.70679 2.83545 10.2268 2.83545ZM15.2401 20.1554L21.5735 13.8221C22.0268 13.3688 22.0268 12.6354 21.5735 12.1688C21.1201 11.7154 20.3735 11.7154 19.9201 12.1688L14.4135 17.6754L12.0801 15.3421C11.6268 14.8888 10.8801 14.8888 10.4268 15.3421C9.97346 15.7954 9.97346 16.5288 10.4268 16.9954L13.6001 20.1554C13.8268 20.3821 14.1201 20.4888 14.4135 20.4888C14.7201 20.4888 15.0135 20.3821 15.2401 20.1554Z" fill="#4CC651"></path></svg>