<svg xmlns="http://www.w3.org/2000/svg" width="32" height="33" viewBox="0 0 32 33" fill="none"><path fill-rule="evenodd" clip-rule="evenodd" d="M10.2264 2.83423H21.7864C26.3064 2.83423 29.3331 6.00756 29.3331 10.7276V21.6222C29.3331 26.3289 26.3064 29.5009 21.7864 29.5009H10.2264C5.7064 29.5009 2.6664 26.3289 2.6664 21.6222V10.7276C2.6664 6.00756 5.7064 2.83423 10.2264 2.83423ZM20.0131 20.1676C20.4664 19.7156 20.4664 18.9822 20.0131 18.5289L17.6397 16.1556L20.0131 13.7809C20.4664 13.3289 20.4664 12.5822 20.0131 12.1289C19.5597 11.6742 18.8264 11.6742 18.3597 12.1289L15.9997 14.5009L13.6264 12.1289C13.1597 11.6742 12.4264 11.6742 11.9731 12.1289C11.5197 12.5822 11.5197 13.3289 11.9731 13.7809L14.3464 16.1556L11.9731 18.5156C11.5197 18.9822 11.5197 19.7156 11.9731 20.1676C12.1997 20.3942 12.5064 20.5156 12.7997 20.5156C13.1064 20.5156 13.3997 20.3942 13.6264 20.1676L15.9997 17.8089L18.3731 20.1676C18.5997 20.4089 18.8931 20.5156 19.1864 20.5156C19.4931 20.5156 19.7864 20.3942 20.0131 20.1676Z" fill="#E36060"></path></svg>